<mxfile host="app.diagrams.net" modified="2022-05-26T00:57:47.071Z" agent="5.0 (X11; Linux x86_64) AppleWebKit/537.36 (KHTML, like Gecko) Chrome/101.0.4951.64 Safari/537.36" etag="276drcvz1F77XkBL9eQ0" version="18.0.7" type="github" pages="3">
  <diagram id="M9jgvvfT6mvof5oEilF7" name="Page-1">
    <mxGraphModel dx="868" dy="483" grid="1" gridSize="10" guides="1" tooltips="1" connect="1" arrows="1" fold="1" page="1" pageScale="1" pageWidth="827" pageHeight="1169" math="0" shadow="0">
      <root>
        <mxCell id="0" />
        <mxCell id="1" parent="0" />
        <mxCell id="JOX6iShSyTmioRb23QyU-5" style="edgeStyle=orthogonalEdgeStyle;rounded=0;orthogonalLoop=1;jettySize=auto;html=1;entryX=0.479;entryY=-0.1;entryDx=0;entryDy=0;entryPerimeter=0;endArrow=none;endFill=0;" edge="1" parent="1" target="JOX6iShSyTmioRb23QyU-4">
          <mxGeometry relative="1" as="geometry">
            <mxPoint x="454" y="200" as="sourcePoint" />
            <Array as="points">
              <mxPoint x="517" y="200" />
            </Array>
          </mxGeometry>
        </mxCell>
        <mxCell id="JOX6iShSyTmioRb23QyU-7" value="" style="edgeStyle=orthogonalEdgeStyle;rounded=0;orthogonalLoop=1;jettySize=auto;html=1;endArrow=none;endFill=0;" edge="1" parent="1" target="JOX6iShSyTmioRb23QyU-6">
          <mxGeometry relative="1" as="geometry">
            <mxPoint x="374" y="200" as="sourcePoint" />
          </mxGeometry>
        </mxCell>
        <mxCell id="JOX6iShSyTmioRb23QyU-9" style="edgeStyle=orthogonalEdgeStyle;rounded=0;orthogonalLoop=1;jettySize=auto;html=1;endArrow=none;endFill=0;" edge="1" parent="1" target="JOX6iShSyTmioRb23QyU-10">
          <mxGeometry relative="1" as="geometry">
            <mxPoint x="340" y="270" as="targetPoint" />
            <mxPoint x="414" y="210" as="sourcePoint" />
          </mxGeometry>
        </mxCell>
        <mxCell id="JOX6iShSyTmioRb23QyU-21" style="edgeStyle=orthogonalEdgeStyle;rounded=0;orthogonalLoop=1;jettySize=auto;html=1;endArrow=none;endFill=0;" edge="1" parent="1" target="JOX6iShSyTmioRb23QyU-20">
          <mxGeometry relative="1" as="geometry">
            <mxPoint x="454" y="200" as="sourcePoint" />
          </mxGeometry>
        </mxCell>
        <mxCell id="JOX6iShSyTmioRb23QyU-22" style="edgeStyle=orthogonalEdgeStyle;rounded=0;orthogonalLoop=1;jettySize=auto;html=1;endArrow=none;endFill=0;" edge="1" parent="1">
          <mxGeometry relative="1" as="geometry">
            <mxPoint x="190" y="270" as="targetPoint" />
            <mxPoint x="390" y="190" as="sourcePoint" />
            <Array as="points">
              <mxPoint x="390" y="170" />
              <mxPoint x="190" y="170" />
            </Array>
          </mxGeometry>
        </mxCell>
        <mxCell id="JOX6iShSyTmioRb23QyU-4" value="&lt;u&gt;numCarteiraDeTrabalho&lt;/u&gt;" style="text;html=1;align=center;verticalAlign=middle;resizable=0;points=[];autosize=1;strokeColor=none;fillColor=none;" vertex="1" parent="1">
          <mxGeometry x="450" y="280" width="140" height="20" as="geometry" />
        </mxCell>
        <mxCell id="JOX6iShSyTmioRb23QyU-6" value="Nome" style="text;html=1;align=center;verticalAlign=middle;resizable=0;points=[];autosize=1;strokeColor=none;fillColor=none;" vertex="1" parent="1">
          <mxGeometry x="229" y="190" width="50" height="20" as="geometry" />
        </mxCell>
        <mxCell id="JOX6iShSyTmioRb23QyU-12" value="" style="edgeStyle=orthogonalEdgeStyle;rounded=0;orthogonalLoop=1;jettySize=auto;html=1;endArrow=none;endFill=0;" edge="1" parent="1" source="JOX6iShSyTmioRb23QyU-10" target="JOX6iShSyTmioRb23QyU-11">
          <mxGeometry relative="1" as="geometry" />
        </mxCell>
        <mxCell id="JOX6iShSyTmioRb23QyU-10" value="EndereÃ§o" style="text;html=1;align=center;verticalAlign=middle;resizable=0;points=[];autosize=1;strokeColor=none;fillColor=none;" vertex="1" parent="1">
          <mxGeometry x="304" y="280" width="70" height="20" as="geometry" />
        </mxCell>
        <mxCell id="JOX6iShSyTmioRb23QyU-11" value="Rua&amp;nbsp;" style="text;html=1;align=center;verticalAlign=middle;resizable=0;points=[];autosize=1;strokeColor=none;fillColor=none;" vertex="1" parent="1">
          <mxGeometry x="319" y="330" width="40" height="20" as="geometry" />
        </mxCell>
        <mxCell id="JOX6iShSyTmioRb23QyU-16" style="edgeStyle=orthogonalEdgeStyle;rounded=0;orthogonalLoop=1;jettySize=auto;html=1;entryX=0.986;entryY=0.35;entryDx=0;entryDy=0;entryPerimeter=0;endArrow=none;endFill=0;" edge="1" parent="1" source="JOX6iShSyTmioRb23QyU-15" target="JOX6iShSyTmioRb23QyU-10">
          <mxGeometry relative="1" as="geometry" />
        </mxCell>
        <mxCell id="JOX6iShSyTmioRb23QyU-15" value="CEP" style="text;html=1;align=center;verticalAlign=middle;resizable=0;points=[];autosize=1;strokeColor=none;fillColor=none;" vertex="1" parent="1">
          <mxGeometry x="374" y="330" width="40" height="20" as="geometry" />
        </mxCell>
        <mxCell id="JOX6iShSyTmioRb23QyU-19" style="edgeStyle=orthogonalEdgeStyle;rounded=0;orthogonalLoop=1;jettySize=auto;html=1;entryX=-0.014;entryY=0.4;entryDx=0;entryDy=0;entryPerimeter=0;endArrow=none;endFill=0;" edge="1" parent="1" source="JOX6iShSyTmioRb23QyU-17" target="JOX6iShSyTmioRb23QyU-10">
          <mxGeometry relative="1" as="geometry" />
        </mxCell>
        <mxCell id="JOX6iShSyTmioRb23QyU-17" value="Bairro" style="text;html=1;align=center;verticalAlign=middle;resizable=0;points=[];autosize=1;strokeColor=none;fillColor=none;" vertex="1" parent="1">
          <mxGeometry x="254" y="330" width="50" height="20" as="geometry" />
        </mxCell>
        <mxCell id="JOX6iShSyTmioRb23QyU-20" value="* Telefones" style="text;html=1;align=center;verticalAlign=middle;resizable=0;points=[];autosize=1;strokeColor=none;fillColor=none;" vertex="1" parent="1">
          <mxGeometry x="575" y="160" width="70" height="20" as="geometry" />
        </mxCell>
        <mxCell id="JOX6iShSyTmioRb23QyU-23" value="Cargo" style="text;html=1;align=center;verticalAlign=middle;resizable=0;points=[];autosize=1;strokeColor=none;fillColor=none;" vertex="1" parent="1">
          <mxGeometry x="165" y="270" width="50" height="20" as="geometry" />
        </mxCell>
        <mxCell id="JOX6iShSyTmioRb23QyU-25" value="Funcionarios" style="rounded=0;whiteSpace=wrap;html=1;" vertex="1" parent="1">
          <mxGeometry x="380" y="190" width="79" height="20" as="geometry" />
        </mxCell>
      </root>
    </mxGraphModel>
  </diagram>
  <diagram id="CEjbmPQ8vyPaWWRZG6yt" name="Page-2">
    <mxGraphModel dx="555" dy="472" grid="1" gridSize="10" guides="1" tooltips="1" connect="1" arrows="1" fold="1" page="1" pageScale="1" pageWidth="827" pageHeight="1169" math="0" shadow="0">
      <root>
        <mxCell id="0" />
        <mxCell id="1" parent="0" />
        <mxCell id="FdcX-lI9Y2hTHAdNEN3W-10" style="edgeStyle=orthogonalEdgeStyle;rounded=0;orthogonalLoop=1;jettySize=auto;html=1;exitX=0;exitY=1;exitDx=0;exitDy=0;entryX=0.429;entryY=0;entryDx=0;entryDy=0;entryPerimeter=0;endArrow=none;endFill=0;" edge="1" parent="1" source="FdcX-lI9Y2hTHAdNEN3W-1" target="FdcX-lI9Y2hTHAdNEN3W-6">
          <mxGeometry relative="1" as="geometry" />
        </mxCell>
        <mxCell id="FdcX-lI9Y2hTHAdNEN3W-11" style="edgeStyle=orthogonalEdgeStyle;rounded=0;orthogonalLoop=1;jettySize=auto;html=1;exitX=1;exitY=1;exitDx=0;exitDy=0;entryX=0.557;entryY=0.05;entryDx=0;entryDy=0;entryPerimeter=0;endArrow=none;endFill=0;" edge="1" parent="1" source="FdcX-lI9Y2hTHAdNEN3W-1" target="FdcX-lI9Y2hTHAdNEN3W-9">
          <mxGeometry relative="1" as="geometry" />
        </mxCell>
        <mxCell id="FdcX-lI9Y2hTHAdNEN3W-12" style="edgeStyle=orthogonalEdgeStyle;rounded=0;orthogonalLoop=1;jettySize=auto;html=1;exitX=0.75;exitY=1;exitDx=0;exitDy=0;endArrow=none;endFill=0;" edge="1" parent="1" source="FdcX-lI9Y2hTHAdNEN3W-1" target="FdcX-lI9Y2hTHAdNEN3W-8">
          <mxGeometry relative="1" as="geometry" />
        </mxCell>
        <mxCell id="FdcX-lI9Y2hTHAdNEN3W-13" style="edgeStyle=orthogonalEdgeStyle;rounded=0;orthogonalLoop=1;jettySize=auto;html=1;exitX=0.25;exitY=1;exitDx=0;exitDy=0;endArrow=none;endFill=0;" edge="1" parent="1" source="FdcX-lI9Y2hTHAdNEN3W-1" target="FdcX-lI9Y2hTHAdNEN3W-7">
          <mxGeometry relative="1" as="geometry" />
        </mxCell>
        <mxCell id="FdcX-lI9Y2hTHAdNEN3W-16" value="" style="edgeStyle=orthogonalEdgeStyle;rounded=0;orthogonalLoop=1;jettySize=auto;html=1;endArrow=none;endFill=0;" edge="1" parent="1" source="FdcX-lI9Y2hTHAdNEN3W-1" target="FdcX-lI9Y2hTHAdNEN3W-15">
          <mxGeometry relative="1" as="geometry" />
        </mxCell>
        <mxCell id="FdcX-lI9Y2hTHAdNEN3W-1" value="Clientes" style="rounded=0;whiteSpace=wrap;html=1;" vertex="1" parent="1">
          <mxGeometry x="80" y="80" width="100" height="40" as="geometry" />
        </mxCell>
        <mxCell id="FdcX-lI9Y2hTHAdNEN3W-20" style="edgeStyle=orthogonalEdgeStyle;rounded=0;orthogonalLoop=1;jettySize=auto;html=1;exitX=0.25;exitY=1;exitDx=0;exitDy=0;endArrow=none;endFill=0;" edge="1" parent="1" source="FdcX-lI9Y2hTHAdNEN3W-2" target="FdcX-lI9Y2hTHAdNEN3W-19">
          <mxGeometry relative="1" as="geometry" />
        </mxCell>
        <mxCell id="FdcX-lI9Y2hTHAdNEN3W-22" style="edgeStyle=orthogonalEdgeStyle;rounded=0;orthogonalLoop=1;jettySize=auto;html=1;exitX=0.75;exitY=1;exitDx=0;exitDy=0;endArrow=none;endFill=0;" edge="1" parent="1" source="FdcX-lI9Y2hTHAdNEN3W-2" target="FdcX-lI9Y2hTHAdNEN3W-21">
          <mxGeometry relative="1" as="geometry" />
        </mxCell>
        <mxCell id="FdcX-lI9Y2hTHAdNEN3W-30" value="" style="edgeStyle=orthogonalEdgeStyle;rounded=0;orthogonalLoop=1;jettySize=auto;html=1;endArrow=none;endFill=0;" edge="1" parent="1" source="FdcX-lI9Y2hTHAdNEN3W-2" target="FdcX-lI9Y2hTHAdNEN3W-29">
          <mxGeometry relative="1" as="geometry" />
        </mxCell>
        <mxCell id="FdcX-lI9Y2hTHAdNEN3W-2" value="Contas" style="rounded=0;whiteSpace=wrap;html=1;" vertex="1" parent="1">
          <mxGeometry x="350" y="80" width="100" height="40" as="geometry" />
        </mxCell>
        <mxCell id="FdcX-lI9Y2hTHAdNEN3W-3" value="AgÃªncias" style="rounded=0;whiteSpace=wrap;html=1;" vertex="1" parent="1">
          <mxGeometry x="620" y="80" width="100" height="40" as="geometry" />
        </mxCell>
        <mxCell id="FdcX-lI9Y2hTHAdNEN3W-6" value="&lt;u&gt;Identidade&lt;/u&gt;" style="text;html=1;align=center;verticalAlign=middle;resizable=0;points=[];autosize=1;strokeColor=none;fillColor=none;" vertex="1" parent="1">
          <mxGeometry x="25" y="140" width="70" height="20" as="geometry" />
        </mxCell>
        <mxCell id="FdcX-lI9Y2hTHAdNEN3W-7" value="Nome" style="text;html=1;align=center;verticalAlign=middle;resizable=0;points=[];autosize=1;strokeColor=none;fillColor=none;" vertex="1" parent="1">
          <mxGeometry x="70" y="170" width="50" height="20" as="geometry" />
        </mxCell>
        <mxCell id="FdcX-lI9Y2hTHAdNEN3W-24" value="" style="edgeStyle=orthogonalEdgeStyle;rounded=0;orthogonalLoop=1;jettySize=auto;html=1;endArrow=none;endFill=0;" edge="1" parent="1" source="FdcX-lI9Y2hTHAdNEN3W-8" target="FdcX-lI9Y2hTHAdNEN3W-23">
          <mxGeometry relative="1" as="geometry" />
        </mxCell>
        <mxCell id="FdcX-lI9Y2hTHAdNEN3W-8" value="EndereÃ§o" style="text;html=1;align=center;verticalAlign=middle;resizable=0;points=[];autosize=1;strokeColor=none;fillColor=none;" vertex="1" parent="1">
          <mxGeometry x="120" y="170" width="70" height="20" as="geometry" />
        </mxCell>
        <mxCell id="FdcX-lI9Y2hTHAdNEN3W-9" value="*Telefone" style="text;html=1;align=center;verticalAlign=middle;resizable=0;points=[];autosize=1;strokeColor=none;fillColor=none;" vertex="1" parent="1">
          <mxGeometry x="155" y="140" width="70" height="20" as="geometry" />
        </mxCell>
        <mxCell id="FdcX-lI9Y2hTHAdNEN3W-17" value="" style="edgeStyle=orthogonalEdgeStyle;rounded=0;orthogonalLoop=1;jettySize=auto;html=1;endArrow=none;endFill=0;" edge="1" parent="1" source="FdcX-lI9Y2hTHAdNEN3W-15" target="FdcX-lI9Y2hTHAdNEN3W-2">
          <mxGeometry relative="1" as="geometry" />
        </mxCell>
        <mxCell id="FdcX-lI9Y2hTHAdNEN3W-15" value="possui" style="rhombus;whiteSpace=wrap;html=1;rounded=0;" vertex="1" parent="1">
          <mxGeometry x="225" y="60" width="80" height="80" as="geometry" />
        </mxCell>
        <mxCell id="FdcX-lI9Y2hTHAdNEN3W-18" value="1" style="text;html=1;align=center;verticalAlign=middle;resizable=0;points=[];autosize=1;strokeColor=none;fillColor=none;" vertex="1" parent="1">
          <mxGeometry x="185" y="70" width="20" height="20" as="geometry" />
        </mxCell>
        <mxCell id="FdcX-lI9Y2hTHAdNEN3W-19" value="&lt;u&gt;Numero da Conta&lt;/u&gt;" style="text;html=1;align=center;verticalAlign=middle;resizable=0;points=[];autosize=1;strokeColor=none;fillColor=none;" vertex="1" parent="1">
          <mxGeometry x="305" y="160" width="110" height="20" as="geometry" />
        </mxCell>
        <mxCell id="FdcX-lI9Y2hTHAdNEN3W-21" value="Saldo" style="text;html=1;align=center;verticalAlign=middle;resizable=0;points=[];autosize=1;strokeColor=none;fillColor=none;" vertex="1" parent="1">
          <mxGeometry x="415" y="160" width="50" height="20" as="geometry" />
        </mxCell>
        <mxCell id="FdcX-lI9Y2hTHAdNEN3W-23" value="Rua" style="text;html=1;align=center;verticalAlign=middle;resizable=0;points=[];autosize=1;strokeColor=none;fillColor=none;" vertex="1" parent="1">
          <mxGeometry x="135" y="230" width="40" height="20" as="geometry" />
        </mxCell>
        <mxCell id="FdcX-lI9Y2hTHAdNEN3W-28" style="edgeStyle=orthogonalEdgeStyle;rounded=0;orthogonalLoop=1;jettySize=auto;html=1;entryX=0.814;entryY=1.1;entryDx=0;entryDy=0;entryPerimeter=0;endArrow=none;endFill=0;" edge="1" parent="1" source="FdcX-lI9Y2hTHAdNEN3W-25" target="FdcX-lI9Y2hTHAdNEN3W-8">
          <mxGeometry relative="1" as="geometry" />
        </mxCell>
        <mxCell id="FdcX-lI9Y2hTHAdNEN3W-25" value="CEP" style="text;html=1;align=center;verticalAlign=middle;resizable=0;points=[];autosize=1;strokeColor=none;fillColor=none;" vertex="1" parent="1">
          <mxGeometry x="185" y="230" width="40" height="20" as="geometry" />
        </mxCell>
        <mxCell id="FdcX-lI9Y2hTHAdNEN3W-27" style="edgeStyle=orthogonalEdgeStyle;rounded=0;orthogonalLoop=1;jettySize=auto;html=1;entryX=0.286;entryY=1;entryDx=0;entryDy=0;entryPerimeter=0;endArrow=none;endFill=0;" edge="1" parent="1" source="FdcX-lI9Y2hTHAdNEN3W-26" target="FdcX-lI9Y2hTHAdNEN3W-8">
          <mxGeometry relative="1" as="geometry" />
        </mxCell>
        <mxCell id="FdcX-lI9Y2hTHAdNEN3W-26" value="Bairro" style="text;html=1;align=center;verticalAlign=middle;resizable=0;points=[];autosize=1;strokeColor=none;fillColor=none;" vertex="1" parent="1">
          <mxGeometry x="85" y="230" width="50" height="20" as="geometry" />
        </mxCell>
        <mxCell id="FdcX-lI9Y2hTHAdNEN3W-31" value="" style="edgeStyle=orthogonalEdgeStyle;rounded=0;orthogonalLoop=1;jettySize=auto;html=1;endArrow=none;endFill=0;" edge="1" parent="1" source="FdcX-lI9Y2hTHAdNEN3W-29" target="FdcX-lI9Y2hTHAdNEN3W-3">
          <mxGeometry relative="1" as="geometry" />
        </mxCell>
        <mxCell id="FdcX-lI9Y2hTHAdNEN3W-29" value="gerencia" style="rhombus;whiteSpace=wrap;html=1;rounded=0;" vertex="1" parent="1">
          <mxGeometry x="500" y="60" width="80" height="80" as="geometry" />
        </mxCell>
        <mxCell id="FdcX-lI9Y2hTHAdNEN3W-33" style="edgeStyle=orthogonalEdgeStyle;rounded=0;orthogonalLoop=1;jettySize=auto;html=1;endArrow=none;endFill=0;" edge="1" parent="1" source="FdcX-lI9Y2hTHAdNEN3W-32" target="FdcX-lI9Y2hTHAdNEN3W-3">
          <mxGeometry relative="1" as="geometry" />
        </mxCell>
        <mxCell id="FdcX-lI9Y2hTHAdNEN3W-32" value="&lt;u&gt;CÃ³digo&lt;/u&gt;" style="text;html=1;align=center;verticalAlign=middle;resizable=0;points=[];autosize=1;strokeColor=none;fillColor=none;" vertex="1" parent="1">
          <mxGeometry x="605" y="170" width="50" height="20" as="geometry" />
        </mxCell>
        <mxCell id="FdcX-lI9Y2hTHAdNEN3W-35" style="edgeStyle=orthogonalEdgeStyle;rounded=0;orthogonalLoop=1;jettySize=auto;html=1;entryX=0.68;entryY=1;entryDx=0;entryDy=0;entryPerimeter=0;endArrow=none;endFill=0;" edge="1" parent="1" source="FdcX-lI9Y2hTHAdNEN3W-34" target="FdcX-lI9Y2hTHAdNEN3W-3">
          <mxGeometry relative="1" as="geometry" />
        </mxCell>
        <mxCell id="FdcX-lI9Y2hTHAdNEN3W-34" value="Nome" style="text;html=1;align=center;verticalAlign=middle;resizable=0;points=[];autosize=1;strokeColor=none;fillColor=none;" vertex="1" parent="1">
          <mxGeometry x="685" y="170" width="50" height="20" as="geometry" />
        </mxCell>
        <mxCell id="FdcX-lI9Y2hTHAdNEN3W-36" value="N" style="text;html=1;align=center;verticalAlign=middle;resizable=0;points=[];autosize=1;strokeColor=none;fillColor=none;" vertex="1" parent="1">
          <mxGeometry x="330" y="70" width="20" height="20" as="geometry" />
        </mxCell>
        <mxCell id="FdcX-lI9Y2hTHAdNEN3W-37" value="N" style="text;html=1;align=center;verticalAlign=middle;resizable=0;points=[];autosize=1;strokeColor=none;fillColor=none;" vertex="1" parent="1">
          <mxGeometry x="450" y="70" width="20" height="20" as="geometry" />
        </mxCell>
        <mxCell id="FdcX-lI9Y2hTHAdNEN3W-38" value="1" style="text;html=1;align=center;verticalAlign=middle;resizable=0;points=[];autosize=1;strokeColor=none;fillColor=none;" vertex="1" parent="1">
          <mxGeometry x="600" y="70" width="20" height="20" as="geometry" />
        </mxCell>
      </root>
    </mxGraphModel>
  </diagram>
  <diagram id="g5IJDj5MqCqG9QHJ_vfv" name="Page-3">
    <mxGraphModel dx="555" dy="472" grid="1" gridSize="10" guides="1" tooltips="1" connect="1" arrows="1" fold="1" page="1" pageScale="1" pageWidth="827" pageHeight="1169" math="0" shadow="0">
      <root>
        <mxCell id="0" />
        <mxCell id="1" parent="0" />
        <mxCell id="x2FzRxSa2Q6txPdKZqYI-1" value="AgÃªncias" style="rounded=0;whiteSpace=wrap;html=1;" vertex="1" parent="1">
          <mxGeometry x="60" y="190" width="90" height="30" as="geometry" />
        </mxCell>
        <mxCell id="x2FzRxSa2Q6txPdKZqYI-5" style="edgeStyle=orthogonalEdgeStyle;rounded=0;orthogonalLoop=1;jettySize=auto;html=1;exitX=0;exitY=0.5;exitDx=0;exitDy=0;entryX=1;entryY=0.5;entryDx=0;entryDy=0;endArrow=ERone;endFill=0;" edge="1" parent="1" source="x2FzRxSa2Q6txPdKZqYI-3" target="x2FzRxSa2Q6txPdKZqYI-1">
          <mxGeometry relative="1" as="geometry" />
        </mxCell>
        <mxCell id="x2FzRxSa2Q6txPdKZqYI-6" style="edgeStyle=orthogonalEdgeStyle;rounded=0;orthogonalLoop=1;jettySize=auto;html=1;exitX=1;exitY=0.5;exitDx=0;exitDy=0;entryX=0;entryY=0.5;entryDx=0;entryDy=0;endArrow=ERmany;endFill=0;" edge="1" parent="1" source="x2FzRxSa2Q6txPdKZqYI-3" target="x2FzRxSa2Q6txPdKZqYI-4">
          <mxGeometry relative="1" as="geometry">
            <mxPoint x="420" y="205" as="sourcePoint" />
          </mxGeometry>
        </mxCell>
        <mxCell id="x2FzRxSa2Q6txPdKZqYI-3" value="possui" style="rhombus;whiteSpace=wrap;html=1;" vertex="1" parent="1">
          <mxGeometry x="260" y="172.5" width="120" height="65" as="geometry" />
        </mxCell>
        <mxCell id="x2FzRxSa2Q6txPdKZqYI-40" style="edgeStyle=orthogonalEdgeStyle;rounded=0;orthogonalLoop=1;jettySize=auto;html=1;exitX=0.5;exitY=0;exitDx=0;exitDy=0;endArrow=ERone;endFill=0;entryX=0.5;entryY=1;entryDx=0;entryDy=0;" edge="1" parent="1" source="x2FzRxSa2Q6txPdKZqYI-39" target="x2FzRxSa2Q6txPdKZqYI-4">
          <mxGeometry relative="1" as="geometry">
            <mxPoint x="570" y="240" as="targetPoint" />
          </mxGeometry>
        </mxCell>
        <mxCell id="x2FzRxSa2Q6txPdKZqYI-4" value="Clientes" style="rounded=0;whiteSpace=wrap;html=1;" vertex="1" parent="1">
          <mxGeometry x="480" y="190" width="90" height="30" as="geometry" />
        </mxCell>
        <mxCell id="x2FzRxSa2Q6txPdKZqYI-7" value="&lt;u&gt;CÃ³digo&lt;/u&gt;" style="ellipse;whiteSpace=wrap;html=1;" vertex="1" parent="1">
          <mxGeometry x="10" y="100" width="105" height="50" as="geometry" />
        </mxCell>
        <mxCell id="x2FzRxSa2Q6txPdKZqYI-9" value="" style="endArrow=none;html=1;rounded=0;exitX=0.5;exitY=1;exitDx=0;exitDy=0;" edge="1" parent="1" source="x2FzRxSa2Q6txPdKZqYI-7">
          <mxGeometry width="50" height="50" relative="1" as="geometry">
            <mxPoint x="115" y="140" as="sourcePoint" />
            <mxPoint x="100" y="190" as="targetPoint" />
          </mxGeometry>
        </mxCell>
        <mxCell id="x2FzRxSa2Q6txPdKZqYI-10" value="Nome" style="ellipse;whiteSpace=wrap;html=1;" vertex="1" parent="1">
          <mxGeometry x="135" y="100" width="105" height="50" as="geometry" />
        </mxCell>
        <mxCell id="x2FzRxSa2Q6txPdKZqYI-11" value="" style="endArrow=none;html=1;rounded=0;exitX=0.5;exitY=1;exitDx=0;exitDy=0;" edge="1" parent="1" source="x2FzRxSa2Q6txPdKZqYI-10">
          <mxGeometry width="50" height="50" relative="1" as="geometry">
            <mxPoint x="32.5" y="90" as="sourcePoint" />
            <mxPoint x="110" y="190" as="targetPoint" />
          </mxGeometry>
        </mxCell>
        <mxCell id="x2FzRxSa2Q6txPdKZqYI-12" value="EndereÃ§o" style="ellipse;whiteSpace=wrap;html=1;" vertex="1" parent="1">
          <mxGeometry x="80" y="50" width="105" height="50" as="geometry" />
        </mxCell>
        <mxCell id="x2FzRxSa2Q6txPdKZqYI-13" value="" style="endArrow=none;html=1;rounded=0;entryX=0.5;entryY=0;entryDx=0;entryDy=0;exitX=0.5;exitY=1;exitDx=0;exitDy=0;" edge="1" parent="1" source="x2FzRxSa2Q6txPdKZqYI-12" target="x2FzRxSa2Q6txPdKZqYI-1">
          <mxGeometry width="50" height="50" relative="1" as="geometry">
            <mxPoint x="-32.5" y="-80" as="sourcePoint" />
            <mxPoint x="30" y="60" as="targetPoint" />
          </mxGeometry>
        </mxCell>
        <mxCell id="x2FzRxSa2Q6txPdKZqYI-16" value="Nome" style="ellipse;whiteSpace=wrap;html=1;" vertex="1" parent="1">
          <mxGeometry x="330" y="90" width="105" height="50" as="geometry" />
        </mxCell>
        <mxCell id="x2FzRxSa2Q6txPdKZqYI-17" value="EndereÃ§o" style="ellipse;whiteSpace=wrap;html=1;" vertex="1" parent="1">
          <mxGeometry x="420" y="50" width="105" height="50" as="geometry" />
        </mxCell>
        <mxCell id="x2FzRxSa2Q6txPdKZqYI-18" value="&lt;u&gt;CPF&lt;/u&gt;" style="ellipse;whiteSpace=wrap;html=1;" vertex="1" parent="1">
          <mxGeometry x="530" y="70" width="105" height="50" as="geometry" />
        </mxCell>
        <mxCell id="x2FzRxSa2Q6txPdKZqYI-19" value="" style="endArrow=none;html=1;rounded=0;entryX=0.5;entryY=1;entryDx=0;entryDy=0;exitX=0.5;exitY=0;exitDx=0;exitDy=0;" edge="1" parent="1" source="x2FzRxSa2Q6txPdKZqYI-4" target="x2FzRxSa2Q6txPdKZqYI-16">
          <mxGeometry width="50" height="50" relative="1" as="geometry">
            <mxPoint x="603.75" y="200" as="sourcePoint" />
            <mxPoint x="446.25" y="160" as="targetPoint" />
          </mxGeometry>
        </mxCell>
        <mxCell id="x2FzRxSa2Q6txPdKZqYI-20" value="" style="endArrow=none;html=1;rounded=0;entryX=0.5;entryY=1;entryDx=0;entryDy=0;exitX=0.5;exitY=0;exitDx=0;exitDy=0;" edge="1" parent="1" source="x2FzRxSa2Q6txPdKZqYI-4" target="x2FzRxSa2Q6txPdKZqYI-17">
          <mxGeometry width="50" height="50" relative="1" as="geometry">
            <mxPoint x="535" y="200" as="sourcePoint" />
            <mxPoint x="432.5" y="170" as="targetPoint" />
          </mxGeometry>
        </mxCell>
        <mxCell id="x2FzRxSa2Q6txPdKZqYI-21" value="" style="endArrow=none;html=1;rounded=0;entryX=0.5;entryY=1;entryDx=0;entryDy=0;exitX=0.5;exitY=0;exitDx=0;exitDy=0;" edge="1" parent="1" source="x2FzRxSa2Q6txPdKZqYI-4" target="x2FzRxSa2Q6txPdKZqYI-18">
          <mxGeometry width="50" height="50" relative="1" as="geometry">
            <mxPoint x="535" y="200" as="sourcePoint" />
            <mxPoint x="542.5" y="150" as="targetPoint" />
            <Array as="points" />
          </mxGeometry>
        </mxCell>
        <mxCell id="x2FzRxSa2Q6txPdKZqYI-22" value="C.C" style="ellipse;whiteSpace=wrap;html=1;" vertex="1" parent="1">
          <mxGeometry x="600" y="120" width="105" height="50" as="geometry" />
        </mxCell>
        <mxCell id="x2FzRxSa2Q6txPdKZqYI-24" value="" style="endArrow=none;html=1;rounded=0;exitX=0.5;exitY=0;exitDx=0;exitDy=0;entryX=0;entryY=1;entryDx=0;entryDy=0;" edge="1" parent="1" source="x2FzRxSa2Q6txPdKZqYI-4" target="x2FzRxSa2Q6txPdKZqYI-22">
          <mxGeometry width="50" height="50" relative="1" as="geometry">
            <mxPoint x="590" y="240" as="sourcePoint" />
            <mxPoint x="647.5" y="190" as="targetPoint" />
            <Array as="points" />
          </mxGeometry>
        </mxCell>
        <mxCell id="x2FzRxSa2Q6txPdKZqYI-26" style="edgeStyle=orthogonalEdgeStyle;rounded=0;orthogonalLoop=1;jettySize=auto;html=1;exitX=0;exitY=0.5;exitDx=0;exitDy=0;entryX=0.5;entryY=1;entryDx=0;entryDy=0;endArrow=ERone;endFill=0;" edge="1" parent="1" source="x2FzRxSa2Q6txPdKZqYI-25" target="x2FzRxSa2Q6txPdKZqYI-1">
          <mxGeometry relative="1" as="geometry">
            <Array as="points">
              <mxPoint x="105" y="363" />
            </Array>
          </mxGeometry>
        </mxCell>
        <mxCell id="x2FzRxSa2Q6txPdKZqYI-29" style="edgeStyle=orthogonalEdgeStyle;rounded=0;orthogonalLoop=1;jettySize=auto;html=1;exitX=1;exitY=0.5;exitDx=0;exitDy=0;entryX=0;entryY=0.5;entryDx=0;entryDy=0;endArrow=ERmany;endFill=0;" edge="1" parent="1" source="x2FzRxSa2Q6txPdKZqYI-25" target="x2FzRxSa2Q6txPdKZqYI-28">
          <mxGeometry relative="1" as="geometry" />
        </mxCell>
        <mxCell id="x2FzRxSa2Q6txPdKZqYI-25" value="possui" style="rhombus;whiteSpace=wrap;html=1;" vertex="1" parent="1">
          <mxGeometry x="260" y="330" width="120" height="65" as="geometry" />
        </mxCell>
        <mxCell id="x2FzRxSa2Q6txPdKZqYI-28" value="C.C" style="rounded=0;whiteSpace=wrap;html=1;" vertex="1" parent="1">
          <mxGeometry x="480" y="347.5" width="90" height="30" as="geometry" />
        </mxCell>
        <mxCell id="x2FzRxSa2Q6txPdKZqYI-31" value="&lt;u&gt;CÃ³digo da&lt;br&gt;AgÃªncia&lt;br&gt;&lt;/u&gt;" style="ellipse;whiteSpace=wrap;html=1;" vertex="1" parent="1">
          <mxGeometry x="380" y="430" width="105" height="50" as="geometry" />
        </mxCell>
        <mxCell id="x2FzRxSa2Q6txPdKZqYI-32" value="" style="endArrow=none;html=1;rounded=0;entryX=0.5;entryY=1;entryDx=0;entryDy=0;exitX=0.5;exitY=0;exitDx=0;exitDy=0;" edge="1" parent="1" source="x2FzRxSa2Q6txPdKZqYI-31" target="x2FzRxSa2Q6txPdKZqYI-28">
          <mxGeometry width="50" height="50" relative="1" as="geometry">
            <mxPoint x="470" y="447.5" as="sourcePoint" />
            <mxPoint x="527.5" y="377.5" as="targetPoint" />
            <Array as="points" />
          </mxGeometry>
        </mxCell>
        <mxCell id="x2FzRxSa2Q6txPdKZqYI-33" value="NÃºmero da C.C" style="ellipse;whiteSpace=wrap;html=1;" vertex="1" parent="1">
          <mxGeometry x="485" y="460" width="105" height="50" as="geometry" />
        </mxCell>
        <mxCell id="x2FzRxSa2Q6txPdKZqYI-34" value="" style="endArrow=none;html=1;rounded=0;entryX=0.5;entryY=1;entryDx=0;entryDy=0;exitX=0.5;exitY=0;exitDx=0;exitDy=0;" edge="1" parent="1" source="x2FzRxSa2Q6txPdKZqYI-33" target="x2FzRxSa2Q6txPdKZqYI-28">
          <mxGeometry width="50" height="50" relative="1" as="geometry">
            <mxPoint x="442.5" y="440" as="sourcePoint" />
            <mxPoint x="535" y="387.5" as="targetPoint" />
            <Array as="points" />
          </mxGeometry>
        </mxCell>
        <mxCell id="x2FzRxSa2Q6txPdKZqYI-35" value="DÃ­gito" style="ellipse;whiteSpace=wrap;html=1;" vertex="1" parent="1">
          <mxGeometry x="600" y="430" width="105" height="50" as="geometry" />
        </mxCell>
        <mxCell id="x2FzRxSa2Q6txPdKZqYI-36" value="" style="endArrow=none;html=1;rounded=0;entryX=0.5;entryY=1;entryDx=0;entryDy=0;exitX=0.371;exitY=0.04;exitDx=0;exitDy=0;exitPerimeter=0;" edge="1" parent="1" source="x2FzRxSa2Q6txPdKZqYI-35" target="x2FzRxSa2Q6txPdKZqYI-28">
          <mxGeometry width="50" height="50" relative="1" as="geometry">
            <mxPoint x="547.5" y="470" as="sourcePoint" />
            <mxPoint x="535" y="387.5" as="targetPoint" />
            <Array as="points" />
          </mxGeometry>
        </mxCell>
        <mxCell id="x2FzRxSa2Q6txPdKZqYI-37" value="Saldo" style="ellipse;whiteSpace=wrap;html=1;" vertex="1" parent="1">
          <mxGeometry x="635" y="360" width="105" height="50" as="geometry" />
        </mxCell>
        <mxCell id="x2FzRxSa2Q6txPdKZqYI-38" value="" style="endArrow=none;html=1;rounded=0;entryX=1;entryY=0.75;entryDx=0;entryDy=0;exitX=0;exitY=0.5;exitDx=0;exitDy=0;" edge="1" parent="1" source="x2FzRxSa2Q6txPdKZqYI-37" target="x2FzRxSa2Q6txPdKZqYI-28">
          <mxGeometry width="50" height="50" relative="1" as="geometry">
            <mxPoint x="648.9549999999999" y="442" as="sourcePoint" />
            <mxPoint x="535" y="387.5" as="targetPoint" />
            <Array as="points" />
          </mxGeometry>
        </mxCell>
        <mxCell id="x2FzRxSa2Q6txPdKZqYI-41" style="edgeStyle=orthogonalEdgeStyle;rounded=0;orthogonalLoop=1;jettySize=auto;html=1;exitX=0.5;exitY=1;exitDx=0;exitDy=0;entryX=0.5;entryY=0;entryDx=0;entryDy=0;endArrow=ERone;endFill=0;" edge="1" parent="1" source="x2FzRxSa2Q6txPdKZqYI-39" target="x2FzRxSa2Q6txPdKZqYI-28">
          <mxGeometry relative="1" as="geometry" />
        </mxCell>
        <mxCell id="x2FzRxSa2Q6txPdKZqYI-39" value="possui" style="rhombus;whiteSpace=wrap;html=1;" vertex="1" parent="1">
          <mxGeometry x="465" y="250" width="120" height="65" as="geometry" />
        </mxCell>
      </root>
    </mxGraphModel>
  </diagram>
</mxfile>
